<?xml version="1.0" encoding="utf-8"?>
<!-- Generator: Adobe Illustrator 25.4.1, SVG Export Plug-In . SVG Version: 6.00 Build 0)  -->
<svg version="1.1" id="Layer_1" xmlns="http://www.w3.org/2000/svg" xmlns:xlink="http://www.w3.org/1999/xlink" x="0px" y="0px"
	 viewBox="0 0 337.8 108.3" style="enable-background:new 0 0 337.8 108.3;" xml:space="preserve">
<style type="text/css">
	.st0{fill:#FBBE0B;}
	.st1{fill:#E30613;}
	.st2{fill:none;}
	.st3{fill:none;stroke:#E30613;stroke-width:3;stroke-miterlimit:10;}
	.st4{fill:#009640;}
	.st5{fill:#1878F3;}
</style>
<g id="Layer_2_00000117656617023805684190000010012896395317582486_">
	<g id="Layer_2-2">
		<path class="st0" d="M227.7,104.4c2.2,1.2,4.6,2,7,2.6c4.2,0.9,8.5,1.4,12.8,1.3c4.9,0.1,9.7-0.5,14.4-1.7
			c3.4-0.9,6.6-2.5,9.2-4.9c1.5-1.4,2.7-3.1,3.5-4.9c1.2-2.8,1.8-5.9,1.8-9v-16c0-3-0.6-5.9-2-8.6c-1.4-2.7-3.5-5-6-6.8l0,0
			c-0.2-0.1-0.3-0.2-0.5-0.3c-4.7-2.3-8.7-4.4-12.1-6.3c-2.8-1.5-5.4-3.2-8-5.1c-1.2-0.8-2.3-1.8-3.3-2.8c-0.4-0.5-0.8-1-1.1-1.6
			c-1.6-3.4-2.4-8-2.4-13.9c0-1.5,0.1-3,0.4-4.5c0.3-1.3,0.8-2.4,1.5-3.5c0.5-0.7,1.1-1.2,1.8-1.6c1-0.5,2-0.8,3.1-0.8
			c0.6,0,1.3,0.1,1.9,0.3c0.6,0.2,1.1,0.6,1.6,1c0.9,0.9,1.6,2,2.1,3.2c0.9,2.6,1.3,6,1.4,10.5l0,0l0,0c0,0.2,0,0.3,0,0.5l-0.2,3.6
			v0.2c0,1.3,0.9,2.4,2.1,2.7l16,3.8c0.2,0.1,0.5,0.1,0.7,0.1c0.6,0,1.2-0.2,1.7-0.6c0.5-0.5,0.8-1.1,0.8-1.8V23.1
			c0.1-3.3-0.6-6.5-2.1-9.5c-1.4-2.6-3.6-4.8-6.3-6.2c-2.1-1.2-4.4-2-6.8-2.6c-4.1-0.9-8.3-1.4-12.5-1.3c-4.8-0.1-9.6,0.5-14.2,1.7
			c-3.4,0.9-6.5,2.5-9.1,4.9c-1.5,1.4-2.7,3-3.5,4.9c-1.2,2.8-1.8,5.9-1.7,9v14.3c0,2.3,0.3,4.6,1,6.8c0.5,1.7,1.4,3.3,2.7,4.5
			c0.9,0.8,1.8,1.6,2.8,2.3c1.3,0.9,3,2,4.9,3.2c4,2.4,9.3,5.4,16,8.9c0.4,0.2,0.8,0.4,1.1,0.7c2.2,1.9,3.7,4.5,4.4,7.3
			c1,3.7,1.4,7.5,1.3,11.4c0,1.8-0.1,3.6-0.4,5.3c-0.2,1.4-0.6,2.7-1.3,4c-0.4,0.8-0.9,1.5-1.6,2c-0.9,0.7-2,1.1-3.1,1.1
			c-1,0-2.1-0.2-3-0.6c-0.9-0.4-1.7-1.1-2.3-2c-0.4-0.6-0.6-1.2-0.8-1.9c-0.2-0.9-0.4-1.9-0.4-2.9V74.7c0-1.5-1.2-2.7-2.7-2.7h-0.2
			l-16.6-4c-1.4,0.1-2.6,1.3-2.6,2.7v18c-0.1,3.3,0.6,6.5,2.1,9.5C222.8,100.8,225,103,227.7,104.4z"/>
		<path class="st0" d="M289,104.4c2.2,1.2,4.6,2,7,2.6c4.2,0.9,8.5,1.4,12.8,1.3c4.9,0.1,9.7-0.5,14.4-1.7c3.4-0.9,6.6-2.5,9.2-4.9
			c1.5-1.4,2.7-3,3.5-4.9c1.2-2.8,1.8-5.9,1.8-9v-16c0-3-0.6-5.9-2-8.6c-1.4-2.7-3.5-5-5.9-6.8c-0.2-0.1-0.3-0.2-0.5-0.3
			c-4.7-2.3-8.7-4.4-12.1-6.3c-2.8-1.5-5.5-3.2-8-5.1C308.1,44,307,43,306,42c-0.4-0.5-0.8-1-1.1-1.6l0,0c-1.7-3.4-2.4-8-2.4-13.9
			c0-1.5,0.1-3,0.4-4.5c0.3-1.2,0.8-2.4,1.5-3.5c0.5-0.7,1.1-1.2,1.8-1.6c1-0.5,2-0.8,3.1-0.8c0.6,0,1.3,0.1,1.9,0.3
			c0.6,0.2,1.1,0.6,1.6,1c0.9,0.9,1.6,2,2,3.2c1,2.6,1.3,6,1.4,10.5l0,0c0,0.2,0,0.3,0,0.5l0,0l-0.2,3.5l0,0v0.2
			c0,1.3,0.9,2.4,2.1,2.7l0,0l16,3.8c0.2,0.1,0.5,0.1,0.7,0.1c0.6,0,1.2-0.2,1.7-0.6c0.5-0.5,0.7-1.1,0.7-1.8V23.1
			c0.1-3.3-0.6-6.5-2.1-9.5c-1.4-2.6-3.6-4.8-6.3-6.2c-2.1-1.2-4.4-2-6.8-2.6c-4.1-0.9-8.3-1.4-12.5-1.3c-4.8-0.1-9.5,0.5-14.2,1.7
			c-3.4,0.9-6.5,2.5-9.1,4.9c-1.5,1.4-2.6,3-3.5,4.9c-1.2,2.8-1.8,5.9-1.7,9v14.3c0,2.3,0.3,4.6,1,6.8c0.5,1.7,1.4,3.3,2.7,4.6
			c0.9,0.8,1.8,1.6,2.8,2.2c1.3,0.9,3,2,5,3.2c4,2.4,9.3,5.4,16,8.9l0,0c0.4,0.2,0.8,0.4,1.1,0.7l0,0c2.2,1.9,3.7,4.5,4.4,7.3
			c1,3.7,1.4,7.5,1.3,11.4c0,1.8-0.1,3.6-0.4,5.3c-0.2,1.4-0.6,2.7-1.3,4c-0.4,0.8-0.9,1.5-1.6,2c-0.9,0.7-2,1.1-3.2,1.1
			c-1,0-2.1-0.2-3-0.6c-0.9-0.4-1.7-1.1-2.3-2c-0.4-0.6-0.6-1.2-0.8-1.9c-0.2-0.9-0.4-1.9-0.4-2.9V74.7c0-1.5-1.2-2.7-2.7-2.7h-0.2
			L283,68c-0.7,0-1.3,0.3-1.8,0.8c-0.5,0.5-0.8,1.2-0.8,1.9v18c-0.1,3.3,0.6,6.5,2.2,9.5C284.1,100.8,286.3,103,289,104.4z"/>
		<path class="st1" d="M99.7,0h17.5c0.7,0,1.3,0.6,1.3,1.4v103c0,0.7-0.6,1.3-1.3,1.3H99.7c-0.7,0-1.3-0.6-1.3-1.3V1.4
			C98.3,0.6,98.9,0,99.7,0z"/>
		<path class="st1" d="M141.3,28.3H159c1,0,1.8,0.8,1.8,1.8v73.6c0,1-0.8,1.8-1.8,1.8h-17.7c-1,0-1.8-0.8-1.8-1.8V30.2
			C139.5,29.2,140.3,28.3,141.3,28.3z"/>
		<path class="st1" d="M195.2,27.8h17.7c1,0,1.8,0.8,1.8,1.8v74.1c0,1-0.8,1.8-1.8,1.8h-17.7c-1,0-1.8-0.8-1.8-1.8V29.6
			C193.4,28.6,194.2,27.8,195.2,27.8z"/>
		<path class="st1" d="M160.8,30.1v-2.9c0-4,3.2-7.2,7.2-7.2h18.4c3.8,0,6.9,3.1,6.9,6.9c0,0,0,0,0,0v3.2h21.4v-8
			c0-11.1-9-20.1-20.1-20.1h-34.1c-11.6,0-21,9.4-21,21v7.1L160.8,30.1z"/>
		<line class="st2" x1="139.3" y1="105.1" x2="214.8" y2="105.1"/>
		<line class="st3" x1="100.4" y1="104.1" x2="141" y2="104.1"/>
		<path class="st4" d="M176.2,49.9l-9.9,15.5c-0.3,0.5-0.1,1.2,0.4,1.4c0.3,0.2,0.7,0.2,1,0l8.9-4.5c0.3-0.2,0.7-0.2,1,0l8.9,4.5
			c0.5,0.4,1.1,0.3,1.5-0.2c0.3-0.4,0.3-0.9,0-1.3l-10-15.5c-0.3-0.5-0.9-0.7-1.4-0.4C176.4,49.6,176.3,49.8,176.2,49.9z"/>
		<path class="st5" d="M1.6,0.3h16.9c0.9,0,1.6,0.7,1.6,1.6V104c0,0.9-0.7,1.6-1.6,1.6H1.6c-0.9,0-1.6-0.7-1.6-1.6V1.9
			C0,1,0.7,0.3,1.6,0.3z"/>
		<path class="st5" d="M0,104.5V86.7c0-0.7,0.5-1.2,1.2-1.2H64c0.7,0,1.2,0.5,1.2,1.2v17.8c0,0.7-0.5,1.2-1.2,1.2H1.2
			C0.5,105.7,0,105.1,0,104.5z"/>
		<path class="st4" d="M78.8,1.1l-9.9,15.5c-0.3,0.5-0.1,1.2,0.5,1.4c0.3,0.2,0.7,0.2,1,0l8.9-4.5c0.3-0.2,0.7-0.2,1,0l8.9,4.5
			c0.5,0.3,1.2,0.1,1.4-0.4c0.2-0.3,0.2-0.7,0-1L80.6,1.1c-0.3-0.5-1-0.7-1.5-0.4C79,0.8,78.9,0.9,78.8,1.1z"/>
		<path class="st5" d="M89.7,23c0-0.6,0-0.5-0.2-0.7l-9-4.8c-0.6-0.3-1.3-0.3-1.8,0l-8.8,4.6c-0.2,0.1-0.3,0.3-0.3,0.6V105
			c0,0.4,0.3,0.7,0.7,0.7l0,0h18.9c0.4,0,0.7-0.3,0.7-0.7l0,0L89.7,23L89.7,23z"/>
	</g>
</g>
</svg>
