<?xml version="1.0" encoding="UTF-8"?>
<svg version="1.1" xmlns="http://www.w3.org/2000/svg" width="116" height="106">
<path d="M0 0 C6.6 0 13.2 0 20 0 C21.95365306 1.95365306 21.12022124 4.93399752 21.12442017 7.53401184 C21.12082489 8.47484116 21.11722961 9.41567047 21.11352539 10.38500977 C21.11367142 11.37026642 21.11381744 12.35552307 21.1139679 13.37063599 C21.11326832 16.64424807 21.10547385 19.91780404 21.09765625 23.19140625 C21.09579223 25.45442168 21.09436825 27.71743751 21.09336853 29.98045349 C21.0895421 35.94978948 21.07971075 41.91910132 21.06866455 47.88842773 C21.05845312 53.97444329 21.05387149 60.06046273 21.04882812 66.14648438 C21.03808859 78.0976686 21.02049078 90.04882851 21 102 C27.27 102 33.54 102 40 102 C39.99476318 99.88698486 39.98952637 97.77396973 39.98413086 95.59692383 C39.96746426 88.56817287 39.95647683 81.53942097 39.94818783 74.5106554 C39.94299809 70.25457007 39.93597259 65.9985052 39.92456055 61.74243164 C39.91359131 57.62512197 39.90769383 53.50783182 39.90512276 49.39050865 C39.90329354 47.82986837 39.89972239 46.26922901 39.89426994 44.70859718 C39.79647896 15.52293235 39.79647896 15.52293235 45 9 C50.09632521 4.22808153 54.35714914 1.91516299 61.36621094 1.82299805 C62.22100037 1.81016281 63.07578979 1.79732758 63.95648193 1.78410339 C64.87318665 1.77671646 65.78989136 1.76932953 66.734375 1.76171875 C67.6863678 1.753647 68.6383606 1.74557526 69.61920166 1.73725891 C71.63316031 1.7234411 73.64714215 1.71270867 75.66113281 1.70483398 C77.7132863 1.69331779 79.76540993 1.67287176 81.81738281 1.64331055 C84.78991965 1.60049721 87.76156754 1.58444551 90.734375 1.57421875 C91.64298279 1.55671066 92.55159058 1.53920258 93.48773193 1.52116394 C100.45762026 1.54467204 105.77598981 3.15528512 111.05859375 7.81640625 C111.51363281 8.39261719 111.96867187 8.96882812 112.4375 9.5625 C112.91058594 10.14128906 113.38367188 10.72007813 113.87109375 11.31640625 C116.62841894 15.42854175 116.13403685 19.86259636 116.11352539 24.60229492 C116.11367142 25.48055435 116.11381744 26.35881378 116.1139679 27.26368713 C116.11327072 30.16930605 116.10548739 33.07486102 116.09765625 35.98046875 C116.09579138 37.99400294 116.0943678 40.00753758 116.09336853 42.02107239 C116.08954879 47.32291922 116.07972312 52.62473869 116.06866455 57.92657471 C116.05843877 63.33581167 116.0538684 68.74505304 116.04882812 74.15429688 C116.03810039 84.76954327 116.02103046 95.38476936 116 106 C112.52085059 106.02887814 109.04173169 106.04675687 105.5625 106.0625 C104.07266602 106.07506836 104.07266602 106.07506836 102.55273438 106.08789062 C101.60849609 106.09111328 100.66425781 106.09433594 99.69140625 106.09765625 C98.81685791 106.10289307 97.94230957 106.10812988 97.04125977 106.11352539 C95 106 95 106 94 105 C93.89094872 102.5214764 93.84577878 100.06978996 93.84228516 97.59033203 C93.83720444 96.81471924 93.83212372 96.03910645 93.82688904 95.23999023 C93.8161624 93.55010241 93.80755128 91.86020017 93.80076981 90.1702919 C93.78901812 87.49771857 93.76957527 84.82530959 93.74765015 82.15280151 C93.68590756 74.55228116 93.63195793 66.95177638 93.59863281 59.35107422 C93.57772016 54.70731189 93.54244277 50.06384666 93.49787521 45.42025375 C93.48368551 43.6476376 93.4749861 41.87496886 93.47182083 40.10229874 C93.46692751 37.62403409 93.44381097 35.1465615 93.41650391 32.66845703 C93.41951004 31.93275482 93.42251617 31.19705261 93.4256134 30.4390564 C93.36115786 26.49522718 93.36115786 26.49522718 91.62423706 23.04498291 C89.30430087 21.55240912 87.52511103 21.61155922 84.78125 21.6015625 C83.25951172 21.59576172 83.25951172 21.59576172 81.70703125 21.58984375 C80.64871094 21.60144531 79.59039062 21.61304687 78.5 21.625 C77.44167969 21.61339844 76.38335937 21.60179688 75.29296875 21.58984375 C74.27847656 21.59371094 73.26398438 21.59757812 72.21875 21.6015625 C71.28998047 21.60494629 70.36121094 21.60833008 69.40429688 21.61181641 C67.02358198 21.83168658 67.02358198 21.83168658 65.37576294 23.04498291 C63.26793839 26.04029038 63.5690599 29.13543485 63.58349609 32.66845703 C63.57491074 33.44757446 63.56632538 34.22669189 63.55747986 35.02941895 C63.53237742 37.60564153 63.52803779 40.18147872 63.5234375 42.7578125 C63.50913306 44.54476098 63.49337706 46.33169839 63.47622681 48.11862183 C63.43433271 52.82328087 63.40936098 57.52787126 63.38873291 62.23266602 C63.35294053 69.77101859 63.29208651 77.30920198 63.23024368 84.84737778 C63.21108819 87.48704736 63.19940524 90.12667167 63.18881226 92.76638794 C63.17860552 94.37437032 63.16824806 95.98235176 63.15771484 97.59033203 C63.15615135 98.69995804 63.15615135 98.69995804 63.15455627 99.83200073 C63.11342606 104.88657394 63.11342606 104.88657394 62 106 C60.06693502 106.09396057 58.13041162 106.11743517 56.19506836 106.11352539 C54.93641968 106.11340454 53.677771 106.11328369 52.38098145 106.11315918 C51.03393505 106.10812272 49.68688913 106.10295608 48.33984375 106.09765625 C47.12204224 106.09664917 45.90424072 106.09564209 44.64953613 106.09460449 C40.07884791 106.08935295 35.50817306 106.07539185 30.9375 106.0625 C20.728125 106.041875 10.51875 106.02125 0 106 C0 71.02 0 36.04 0 0 Z " fill="#E30512" transform="translate(0,0)"/>
<path d="M0 0 C0.99 0 1.98 0 3 0 C4.27441406 1.42114258 4.27441406 1.42114258 5.515625 3.39453125 C6.18464844 4.45704102 6.18464844 4.45704102 6.8671875 5.54101562 C7.32351562 6.29060547 7.77984375 7.04019531 8.25 7.8125 C8.72179687 8.55048828 9.19359375 9.28847656 9.6796875 10.04882812 C12.24244573 14.18895656 12.24244573 14.18895656 13 16 C12.67 16.99 12.34 17.98 12 19 C11.40832031 18.69964844 10.81664063 18.39929688 10.20703125 18.08984375 C5.49617196 15.72718438 5.49617196 15.72718438 0.375 15.0625 C-2.78549583 16.31006414 -5.90177107 17.6027595 -9 19 C-10 16 -10 16 -9.24316406 14.19067383 C-7.9228557 12.05712064 -6.60148882 9.92650916 -5.25 7.8125 C-4.79367188 7.06291016 -4.33734375 6.31332031 -3.8671875 5.54101562 C-3.42117187 4.83267578 -2.97515625 4.12433594 -2.515625 3.39453125 C-2.10602539 2.74331299 -1.69642578 2.09209473 -1.27441406 1.42114258 C-0.85385742 0.95216553 -0.43330078 0.48318848 0 0 Z " fill="#00963F" transform="translate(77,49)"/>
</svg>
